<svg width="500" height="500" viewBox="0 0 500 500" fill="none" xmlns="http://www.w3.org/2000/svg">
<rect width="500" height="500" rx="100" fill="white"/>
<path d="M53.75 123.95H163.3C167.033 123.95 170.067 125.233 172.4 127.8C174.733 130.367 175.9 133.75 175.9 137.95V377H139.15C131.217 377 125.967 375.717 123.4 373.15C121.067 370.583 119.9 365.217 119.9 357.05V167.7H63.9C57.1333 167.7 53.75 162.1 53.75 150.9V123.95ZM189.9 123.95H245.9C252.667 123.95 256.05 129.55 256.05 140.75V167.7H189.9V123.95Z" fill="black"/>
<path d="M393.715 300.7H442.715C445.282 300.7 446.565 302.333 446.565 305.6V367.2C446.565 373.733 443.298 377 436.765 377H352.065V343.75H384.615C388.348 343.75 390.215 343.4 390.215 342.7C390.448 341.767 390.565 340.717 390.565 339.55V304.55C390.565 302.683 390.798 301.633 391.265 301.4C391.732 300.933 392.548 300.7 393.715 300.7ZM339.815 377H303.065C295.132 377 289.882 375.717 287.315 373.15C284.982 370.583 283.815 365.217 283.815 357.05V143.9C283.815 135.733 284.982 130.367 287.315 127.8C289.882 125.233 295.132 123.95 303.065 123.95H339.815V377Z" fill="#EC4C4C"/>
</svg>
