<svg width="411" height="93" viewBox="0 0 411 93" fill="none" xmlns="http://www.w3.org/2000/svg">
<path d="M0.2 0.455994H40.264C41.6293 0.455994 42.7387 0.925329 43.592 1.864C44.4453 2.80266 44.872 4.04 44.872 5.576V93H31.432C28.5307 93 26.6107 92.5307 25.672 91.592C24.8187 90.6533 24.392 88.6907 24.392 85.704V16.456H3.912C1.43733 16.456 0.2 14.408 0.2 10.312V0.455994ZM49.992 0.455994H70.472C72.9467 0.455994 74.184 2.504 74.184 6.6V16.456H49.992V0.455994ZM101.618 93H101.362C92.914 93 87.7087 91.5493 85.746 88.648C84.8073 87.2827 84.0393 85.96 83.442 84.68C82.93 83.4 82.5887 81.3947 82.418 78.664C81.9913 73.7147 81.778 68.2107 81.778 62.152C81.778 56.0933 81.8207 51.7413 81.906 49.096C81.9913 46.3653 82.2473 43.6347 82.674 40.904C83.186 38.088 83.826 36.0827 84.594 34.888C85.362 33.608 86.514 32.456 88.05 31.432C89.586 30.408 91.378 29.768 93.426 29.512C95.474 29.1707 98.1193 29 101.362 29H101.618V93ZM135.666 72.776V79.304C135.666 88.4347 131.015 93 121.714 93H105.586V83.4H112.498C114.29 83.4 115.399 83.144 115.826 82.632C116.253 82.0347 116.466 81.0107 116.466 79.56V75.464C116.466 74.184 116.594 73.4587 116.85 73.288C117.191 73.1173 117.405 73.032 117.49 73.032C117.575 72.9467 117.789 72.904 118.13 72.904C118.557 72.8187 118.855 72.776 119.026 72.776C124.573 72.776 130.119 72.776 135.666 72.776ZM105.586 29H120.434C126.322 29 130.333 30.152 132.466 32.456C134.599 34.76 135.666 38.1733 135.666 42.696V53.96C135.666 61.64 131.485 65.48 123.122 65.48H104.306V55.88H111.218C113.266 55.88 114.631 55.624 115.314 55.112C116.082 54.6 116.466 53.6187 116.466 52.168V42.44C116.466 40.9893 116.253 40.008 115.826 39.496C115.399 38.8987 114.29 38.6 112.498 38.6H105.586V29ZM199.606 29V47.944C199.606 52.1253 198.539 55.24 196.406 57.288C194.358 59.2507 190.774 60.232 185.654 60.232H175.926V50.632H177.974C179.339 50.632 180.107 50.0773 180.278 48.968C180.363 48.456 180.406 47.7307 180.406 46.792V34.248C180.406 30.7493 181.942 29 185.014 29H199.606ZM172.086 72.392H170.038C168.673 72.392 167.905 72.9467 167.734 74.056C167.649 74.568 167.606 75.2933 167.606 76.232V87.752C167.606 91.2507 166.07 93 162.998 93H148.406V75.08C148.406 70.8987 149.43 67.8267 151.478 65.864C153.611 63.816 157.238 62.792 162.358 62.792H172.086V72.392ZM175.926 62.792H185.654C190.774 62.792 194.358 63.816 196.406 65.864C198.539 67.8267 199.606 70.8987 199.606 75.08V93H185.014C181.942 93 180.406 91.2507 180.406 87.752V76.232C180.406 74.5253 180.193 73.4587 179.766 73.032C179.339 72.6053 178.742 72.392 177.974 72.392H175.926V62.792ZM148.406 29H162.998C166.07 29 167.606 30.7493 167.606 34.248V46.792C167.606 48.4987 167.819 49.5653 168.246 49.992C168.673 50.4187 169.27 50.632 170.038 50.632H172.086V60.232H162.358C157.238 60.232 153.611 59.2507 151.478 57.288C149.43 55.24 148.406 52.1253 148.406 47.944V29Z" fill="black"/>
<path d="M255.53 65.096H273.45C274.389 65.096 274.858 65.6933 274.858 66.888V89.416C274.858 91.8053 273.663 93 271.274 93H240.298V80.84H252.202C253.567 80.84 254.25 80.712 254.25 80.456C254.335 80.1147 254.378 79.7307 254.378 79.304V66.504C254.378 65.8213 254.463 65.4373 254.634 65.352C254.805 65.1813 255.103 65.096 255.53 65.096ZM235.818 93H222.378C219.477 93 217.557 92.5307 216.618 91.592C215.765 90.6533 215.338 88.6907 215.338 85.704V7.752C215.338 4.76533 215.765 2.80266 216.618 1.864C217.557 0.925329 219.477 0.455994 222.378 0.455994H235.818V93ZM316.278 38.6H309.366C306.721 38.6 305.227 39.0693 304.886 40.008C304.374 41.1173 304.118 42.696 304.118 44.744V77.256C304.118 77.4267 304.118 77.9387 304.118 78.792C304.118 79.6453 304.203 80.3707 304.374 80.968C304.715 82.5893 306.379 83.4 309.366 83.4H316.278V93H303.862C300.619 93 297.974 92.872 295.926 92.616C293.878 92.2747 292.086 91.592 290.55 90.568C289.014 89.544 287.862 88.4347 287.094 87.24C286.326 85.96 285.686 83.9547 285.174 81.224C284.577 77.384 284.278 72.008 284.278 65.096C284.278 58.184 284.321 53.5333 284.406 51.144C284.491 48.6693 284.619 46.0667 284.79 43.336C285.046 40.6053 285.43 38.6 285.942 37.32C286.539 36.04 287.265 34.76 288.118 33.48C289.057 32.1147 290.251 31.176 291.702 30.664C294.859 29.5547 298.913 29 303.862 29H316.278V38.6ZM345.078 92.104C345.078 92.7013 344.907 93 344.566 93H334.07C329.291 93 325.75 91.8907 323.446 89.672C321.227 87.4533 320.118 83.8267 320.118 78.792V29H325.366C330.742 29 334.411 30.28 336.374 32.84C338.337 35.3147 339.318 38.6 339.318 42.696V78.536C339.318 81.1813 339.873 82.6747 340.982 83.016C341.579 83.272 342.39 83.4 343.414 83.4H344.054C344.737 83.4 345.078 83.6987 345.078 84.296V92.104ZM374.246 93H366.438C362.683 93 359.825 92.104 357.862 90.312C355.985 88.4347 355.046 86.0453 355.046 83.144V10.312C355.046 7.41066 355.985 5.064 357.862 3.272C359.825 1.39466 362.683 0.455994 366.438 0.455994H374.246V93ZM378.086 29H390.502C393.745 29 396.39 29.1707 398.438 29.512C400.486 29.768 402.278 30.408 403.814 31.432C405.35 32.456 406.502 33.608 407.27 34.888C408.038 36.0827 408.678 38.0453 409.19 40.776C409.787 44.616 410.086 49.992 410.086 56.904C410.086 63.816 410.043 68.5093 409.958 70.984C409.873 73.3733 409.702 75.9333 409.446 78.664C409.275 81.3947 408.891 83.4 408.294 84.68C407.782 85.96 407.057 87.2827 406.118 88.648C405.265 89.928 404.113 90.824 402.662 91.336C399.505 92.4453 395.451 93 390.502 93H378.086V83.4H384.998C387.217 83.4 388.625 83.1013 389.222 82.504C389.905 81.9067 390.246 80.968 390.246 79.688V42.44C390.246 41.0747 389.905 40.0933 389.222 39.496C388.625 38.8987 387.217 38.6 384.998 38.6H378.086V29Z" fill="#EC4C4C"/>
</svg>
